<mxfile host="65bd71144e">
    <diagram id="BEaKJCIJKDmJCSMTedWr" name="Page-1">
        <mxGraphModel dx="544" dy="502" grid="0" gridSize="10" guides="1" tooltips="1" connect="1" arrows="1" fold="1" page="1" pageScale="1" pageWidth="850" pageHeight="1100" math="0" shadow="0">
            <root>
                <mxCell id="0"/>
                <mxCell id="1" parent="0"/>
                <mxCell id="2" value="INGREDIENTE&lt;br&gt;&lt;br&gt;(Key) nome VARCHAR&lt;br&gt;tipo VARCHAR&lt;br&gt;calorias INT&lt;br&gt;preço_unitario INT&lt;br&gt;quantidade INT" style="rounded=0;whiteSpace=wrap;html=1;" vertex="1" parent="1">
                    <mxGeometry x="460" y="390" width="130" height="140" as="geometry"/>
                </mxCell>
                <mxCell id="3" value="PRATO&lt;br&gt;&lt;br&gt;(Key) nome VARCHAR&lt;br&gt;preço INT" style="rounded=0;whiteSpace=wrap;html=1;" vertex="1" parent="1">
                    <mxGeometry x="235" y="240" width="130" height="110" as="geometry"/>
                </mxCell>
                <mxCell id="7" value="" style="edgeStyle=none;html=1;" edge="1" parent="1" source="4" target="3">
                    <mxGeometry relative="1" as="geometry"/>
                </mxCell>
                <mxCell id="8" value="" style="edgeStyle=none;html=1;" edge="1" parent="1" source="4" target="2">
                    <mxGeometry relative="1" as="geometry"/>
                </mxCell>
                <mxCell id="4" value="INGREDIENTE_PRATO&lt;br&gt;&lt;br&gt;(ForeignKey) nome_prato VARCHAR&lt;br&gt;(ForeignKey) nome_ingrediente VARCHAR&lt;br&gt;quantidade INT" style="rounded=0;whiteSpace=wrap;html=1;" vertex="1" parent="1">
                    <mxGeometry x="180" y="405" width="240" height="110" as="geometry"/>
                </mxCell>
            </root>
        </mxGraphModel>
    </diagram>
</mxfile>